<svg width="58" height="58" viewBox="0 0 58 58" fill="none" xmlns="http://www.w3.org/2000/svg">
<circle cx="28.7037" cy="28.7037" r="28.7037" fill="white"/>
<path d="M40.6888 28.4086C40.6888 27.376 40.6033 26.6226 40.4183 25.8412H28.3872V30.5015H35.4492C35.3068 31.6596 34.538 33.4038 32.8294 34.5758L32.8055 34.7318L36.6095 37.6198L36.873 37.6456C39.2934 35.4549 40.6888 32.2317 40.6888 28.4086Z" fill="#4285F4"/>
<path d="M28.3865 40.6875C31.8463 40.6875 34.7508 39.5712 36.8723 37.6457L32.8287 34.5759C31.7466 35.3154 30.2943 35.8317 28.3865 35.8317C24.9979 35.8317 22.1219 33.6411 21.0967 30.6132L20.9464 30.6257L16.9909 33.6257L16.9392 33.7666C19.0464 37.8689 23.3747 40.6875 28.3865 40.6875Z" fill="#34A853"/>
<path d="M21.0974 30.6133C20.8269 29.8319 20.6703 28.9947 20.6703 28.1296C20.6703 27.2645 20.8269 26.4273 21.0831 25.6459L21.076 25.4795L17.071 22.4314L16.9399 22.4925C16.0715 24.1948 15.5731 26.1064 15.5731 28.1296C15.5731 30.1528 16.0715 32.0643 16.9399 33.7667L21.0974 30.6133Z" fill="#FBBC05"/>
<path d="M28.3866 20.4274C30.7928 20.4274 32.4158 21.446 33.3414 22.2972L36.9578 18.8368C34.7367 16.8136 31.8464 15.5718 28.3866 15.5718C23.3748 15.5718 19.0464 18.3903 16.9392 22.4925L21.0824 25.646C22.1219 22.6181 24.998 20.4274 28.3866 20.4274Z" fill="#EB4335"/>
</svg>
