<svg width="22" height="19" viewBox="0 0 22 19" fill="none" xmlns="http://www.w3.org/2000/svg">
<g clip-path="url(#clip0_294_30)">
<path d="M10.6776 11.4034C11.7288 11.4034 12.581 10.5512 12.581 9.50001C12.581 8.4488 11.7288 7.59662 10.6776 7.59662C9.62635 7.59662 8.77417 8.4488 8.77417 9.50001C8.77417 10.5512 9.62635 11.4034 10.6776 11.4034Z" fill="#61DAFB"/>
<path d="M10.6777 13.3996C16.3183 13.3996 20.891 11.6537 20.891 9.49997C20.891 7.34627 16.3183 5.60034 10.6777 5.60034C5.03701 5.60034 0.464355 7.34627 0.464355 9.49997C0.464355 11.6537 5.03701 13.3996 10.6777 13.3996Z" stroke="#61DAFB" stroke-width="0.928483"/>
<path d="M7.3003 11.4498C10.1206 16.3348 13.919 19.4219 15.7841 18.345C17.6493 17.2681 16.875 12.4351 14.0547 7.55019C11.2343 2.66524 7.43598 -0.421838 5.57082 0.655015C3.70566 1.73187 4.47997 6.56487 7.3003 11.4498Z" stroke="#61DAFB" stroke-width="0.928483"/>
<path d="M7.30036 7.55016C4.48003 12.4351 3.70572 17.2681 5.57088 18.345C7.43605 19.4218 11.2344 16.3347 14.0547 11.4498C16.875 6.56483 17.6494 1.73184 15.7842 0.654982C13.919 -0.421871 10.1207 2.6652 7.30036 7.55016Z" stroke="#61DAFB" stroke-width="0.928483"/>
</g>
<defs>
<clipPath id="clip0_294_30">
<rect width="21.3551" height="19" fill="white"/>
</clipPath>
</defs>
</svg>
